# AST/ASF file generated using VICON BodyLanguage
# -----------------------------------------------
:version 1.10
:name VICON
:units
  mass 1.0
  length 0.45
  angle deg
:documentation
   .ast/.asf automatically generated from VICON data using
   VICON BodyBuilder and BodyLanguage model FoxedUp or BRILLIANT.MOD
:root
   order TX TY TZ RX RY RZ
   axis XYZ
   position 0 0 0  
   orientation 0 0 0 
:bonedata
  begin
     id 1 
     name lhipjoint
     direction 0.603808 -0.713975 0.35448 
     length 2.2025 
     axis 0 0 0  XYZ
  end
  begin
     id 2 
     name lfemur
     direction 0.34202 -0.939693 0  
     length 6.55877  
     axis 0 0 20  XYZ
    dof rx ry rz
    limits (-160.0 20.0)
           (-70.0 70.0)
           (-60.0 70.0)
  end
  begin
     id 3 
     name ltibia
     direction 0.34202 -0.939693 0   
     length 6.80302   
     axis 0 0 20   XYZ
    dof rx
    limits (-10.0 170.0)
  end
  begin
     id 4 
     name lfoot
     direction 0.091848 -0.25235 0.963267   
     length 2.03446   
     axis -90 7.62852e-016 20   XYZ
    dof rx rz
    limits (-45.0 90.0)
           (-70.0 20.0)
  end
  begin
     id 5 
     name ltoes
     direction 1.53608e-011 -4.21925e-011 1   
     length 1.02033   
     axis -90 7.62852e-016 20   XYZ
    dof rx
    limits (-90.0 20.0)
  end
  begin
     id 6 
     name rhipjoint
     direction -0.587285 -0.724947 0.359928   
     length 2.16916  
     axis 0 0 0  XYZ 
  end
  begin
     id 7 
     name rfemur
     direction -0.34202 -0.939693 0   
     length 6.43173   
     axis 0 0 -20   XYZ
    dof rx ry rz
    limits (-160.0 20.0)
           (-70.0 70.0)
           (-70.0 60.0)
  end
  begin
     id 8 
     name rtibia
     direction -0.34202 -0.939693 0   
     length 6.70662   
     axis 0 0 -20   XYZ
    dof rx
    limits (-10.0 170.0)
 end
 begin
     id 9 
     name rfoot
     direction -0.11854 -0.325686 0.938018   
     length 2.0773  
     axis -90 -7.62852e-016 -20   XYZ
    dof rx rz
    limits (-45.0 90.0)
           (-20.0 70.0)
  end
  begin
     id 10 
     name rtoes
     direction -1.53547e-011 -4.21838e-011 1   
     length 1.03267   
     axis -90 -7.62852e-016 -20   XYZ
    dof rx
    limits (-90.0 20.0)
  end
  begin
     id 11 
     name lowerback
     direction -0.0286554 0.999539 0.0100613   
     length 2.08751   
     axis 0 0 0   XYZ
    dof rx ry rz
    limits (-20.0 45.0)
           (-30.0 30.0)
           (-30.0 30.0)
  end
  begin
     id 12 
     name upperback
     direction 0.0227093 0.999705 -0.00860929   
     length 2.08517   
     axis 0 0 0   XYZ
    dof rx ry rz
    limits (-20.0 45.0)
           (-30.0 30.0)
           (-30.0 30.0)
  end
  begin
     id 13 
     name thorax
     direction 0.0351627 0.999285 -0.013892   
     length 2.08412   
     axis 0 0 0   XYZ
    dof rx ry rz
    limits (-20.0 45.0)
           (-30.0 30.0)
           (-30.0 30.0)
  end
  begin
     id 14 
     name lowerneck
     direction -0.0696283 0.997344 0.0213922   
     length 1.44164   
     axis 0 0 0   XYZ
    dof rx ry rz
    limits (-20.0 45.0)
           (-30.0 30.0)
           (-30.0 30.0)
  end
  begin
     id 15 
     name upperneck
     direction 0.0531 0.990412 -0.127531   
     length 1.45022   
     axis 0 0 0   XYZ
    dof rx ry rz
    limits (-20.0 45.0)
           (-30.0 30.0)
           (-30.0 30.0)
  end
  begin
     id 16
     name head
     direction 0.0188154 0.998548 -0.0504727  
     length 1.45845  
     axis 0 0 0   XYZ
    dof rx ry rz
    limits (-20.0 45.0)
           (-30.0 30.0)
           (-30.0 30.0)
  end
  begin
     id 17 
     name lclavicle
     direction 0.961559 0.260051 0.088188  
     length 2.86057  
     axis 0 0 0   XYZ
    dof ry rz
    limits (-20.0 10.0)
           (0.0 20.0)
  end
  begin
     id 18 
     name lhumerus
     direction 1 -4.48959e-011 2.88185e-027   
     length 4.36901   
     axis 180 -30 -90   XYZ
    dof rx ry rz
    limits (-60.0 90.0)
           (-90.0 90.0)
           (-90.0 90.0)
  end
  begin
     id 19
     name lradius
     direction 1 -4.48965e-011 -3.92618e-028   
     length 3.21737   
     axis 180 -30 -90   XYZ
    dof rx
    limits (-10.0 170.0)
  end
  begin
     id 20
     name lwrist
     direction 1 -4.49037e-011 2.57246e-027   
     length 1.60869   
     axis -1.61769e-015 90 90   XYZ
    dof ry
    limits (-180.0 0.0)
 end
  begin
     id 21 
     name lhand
     direction 1 -4.48807e-011 5.12958e-027   
     length 0.564313   
     axis -3.27988e-015 90 90   XYZ
    dof rx rz
    limits (-90.0 90.0)
           (-45.0 45.0)
  end
  begin
     id 22 
     name lfingers
     direction 1 -4.48879e-011 1.02687e-026   
     length 0.454963   
     axis -6.5598e-015 90 90   XYZ
    dof rx
    limits (0.0 90.0)
  end
  begin
     id 23
     name lthumb
     direction 0.707107 -6.3475e-011 0.707107   
     length 0.653239   
     axis -90 45 2.19363e-014   XYZ
    dof rx rz
    limits (-45.0 45.0)
           (-45.0 45.0)
  end
  begin
     id 24 
     name rclavicle
     direction -0.954677 0.253915 0.155304   
     length 3.11497  
     axis 0 0 0   XYZ 
    dof ry rz
    limits (-10.0 20.0)
           (-20.0 0.0)
  end
  begin
     id 25 
     name rhumerus
     direction -1 -4.48958e-011 -8.20169e-028  
     length 4.34118   
     axis 180 30 90   XYZ
    dof rx ry rz
    limits (-90.0 60.0)
           (-90.0 90.0)
           (-90.0 90.0)
  end
  begin
     id 26 
     name rradius
     direction -1 -4.48978e-011 1.5676e-027   
     length 3.09531   
     axis 180 30 90   XYZ
    dof rx
    limits (-10.0 170.0)
  end
  begin
     id 27 
     name rwrist
     direction -1 -4.49001e-011 2.57123e-027   
     length 1.54765   
     axis -1.61769e-015 -90 -90   XYZ
    dof ry
    limits (-180.0 0.0)
  end
  begin
     id 28
     name rhand
     direction -1 -4.48847e-011 5.13225e-027   
     length 0.597446   
     axis -3.27988e-015 -90 -90   XYZ
    dof rx rz
    limits (-90.0 90.0)
           (-45.0 45.0)
  end
  begin
     id 29
     name rfingers
     direction -1 -4.49094e-011 1.02974e-026   
     length 0.481677   
     axis -6.5598e-015 -90 -90   XYZ
    dof rx
    limits (0.0 90.0)
  end
  begin
     id 30
     name rthumb
     direction -0.707107 -6.34859e-011 0.707107   
     length 0.691594   
     axis -90 -45 -2.19363e-014   XYZ
    dof rx rz
    limits (-45.0 45.0)
           (-45.0 45.0)
  end
:hierarchy
  begin
    root lhipjoint rhipjoint lowerback
    lhipjoint lfemur
    lfemur ltibia
    ltibia lfoot
    lfoot ltoes
    rhipjoint rfemur
    rfemur rtibia
    rtibia rfoot
    rfoot rtoes
    lowerback upperback
    upperback thorax
    thorax lowerneck lclavicle rclavicle
    lowerneck upperneck
    upperneck head
    lclavicle lhumerus
    lhumerus lradius
    lradius lwrist
    lwrist lhand lthumb
    lhand lfingers
    rclavicle rhumerus
    rhumerus rradius
    rradius rwrist
    rwrist rhand rthumb
    rhand rfingers
  end

#!OML:ASF I:\Acrobat_Osman\acrobat\cartwheel_test 2\Patient 1\Session 1\acrobat.ASF
:FULLY-SPECIFIED
:DEGREES
210
root 9.97771 15.0447 0.482003 186.625 -153.14 -182.749
lowerback -2.40282 16.3188 9.63647
upperback -0.425489 21.5889 -2.70459
thorax 5.27643 10.9804 -5.45907
lowerneck -8.30268 7.10856 6.52111
upperneck 19.784 10.6169 -8.29093
head 8.28939 4.82319 -2.76168
rclavicle -1.05996e-013 3.42407e-014
rhumerus -0.636767 -17.4172 -35.6021
rradius 34.5713
rwrist 13.5649
rhand -31.7365 34.7757
rfingers 7.12502
rthumb -4.99432 4.85453
lclavicle -1.05996e-013 3.42407e-014
lhumerus -40.4047 8.12973 2.60372
lradius 32.8454
lwrist 47.032
lhand -18.5779 -307.41
lfingers 7.12502
lthumb 7.71257 -277.571
rfemur 26.4819 -19.6338 9.94793
rtibia -4.45278e-014
rfoot -20.6169 -24.0279
rtoes -0.69403
lfemur -43.0704 -21.887 0.428066
ltibia 40.8689
lfoot -11.6071 -27.164
ltoes -10.531
211
root 9.96965 14.9836 0.550411 186.52 -155.548 -183.678
lowerback -1.80605 17.0542 10.8551
upperback -0.726906 22.597 -2.50149
thorax 5.17778 11.4851 -5.75435
lowerneck -7.79122 7.10626 7.08913
upperneck 20.4654 10.6822 -8.46499
head 8.47203 4.89493 -2.92081
rclavicle -2.80908e-014 -1.3418e-015
rhumerus 0.785967 -16.3898 -38.3288
rradius 35.0292
rwrist 14.9175
rhand -31.8457 33.0819
rfingers 7.12502
rthumb -5.09977 3.16322
lclavicle -2.80908e-014 -1.3418e-015
lhumerus -42.5171 8.17426 2.54074
lradius 31.7973
lwrist 46.087
lhand -18.9105 -307.355
lfingers 7.12502
lthumb 7.3915 -277.504
rfemur 28.2359 -20.6209 10.1048
rtibia -6.36111e-015
rfoot -18.5598 -22.4874
rtoes -4.94075
lfemur -44.2417 -23.188 1.18907
ltibia 42.5339
lfoot -10.9207 -28.3512
ltoes -5.76251
212
root 9.96191 14.9213 0.61853 186.379 -157.813 -184.443
lowerback -1.29276 17.7555 11.8032
upperback -1.03953 23.5707 -2.28239
thorax 5.01762 11.9593 -5.9002
lowerneck -7.5623 6.9644 7.45877
upperneck 21.2171 10.5465 -8.48786
head 8.69423 4.86428 -3.01223
rclavicle -8.50286e-014 1.19271e-015
rhumerus 2.4747 -15.4132 -41.1734
rradius 35.6646
rwrist 14.5844
rhand -33.9042 37.3632
rfingers 7.12502
rthumb -7.08707 7.50184
lclavicle -8.50286e-014 1.19271e-015
lhumerus -44.7803 8.30681 2.59207
lradius 31.049
lwrist 46.6766
lhand -22.0177 -308.403
lfingers 7.12502
lthumb 4.39166 -278.469
rfemur 29.7673 -21.5368 10.2835
rtibia 6.36111e-014
rfoot -17.1052 -21.31
rtoes -7.97055
lfemur -45.4678 -24.6578 2.00713
ltibia 44.1889
lfoot -9.71912 -29.3159
ltoes 1.18639
213
root 9.95423 14.8612 0.686524 186.013 -159.597 -184.538
lowerback -0.622104 18.4389 12.0433
upperback -1.3801 24.5718 -2.29178
thorax 4.59039 12.4357 -6.04724
lowerneck -8.10754 6.77647 7.65732
upperneck 22.375 10.299 -8.24024
head 9.16845 4.76579 -2.97292
rclavicle -1.46161e-013 2.98177e-015
rhumerus 3.91328 -13.8408 -44.0397
rradius 36.3903
rwrist 13.6144
rhand -31.9151 35.8007
rfingers 7.12502
rthumb -5.16676 5.88366
lclavicle -1.46161e-013 2.98177e-015
lhumerus -47.1391 10.0501 1.11562
lradius 29.3742
lwrist 44.1315
lhand -21.3249 -307.176
lfingers 7.12502
lthumb 5.06068 -277.257
rfemur 31.064 -22.0852 9.92495
rtibia 8.26944e-014
rfoot -15.9959 -20.4741
rtoes -10.0224
lfemur -46.4318 -25.8303 1.9356
ltibia 45.7838
lfoot -8.84188 -29.8737
ltoes 6.29775
214
root 9.94535 14.8039 0.755368 185.625 -160.95 -184.434
lowerback -0.107296 18.989 11.8827
upperback -1.64783 25.3775 -2.30052
thorax 4.12996 12.8112 -6.04627
lowerneck -8.80667 6.66692 8.21478
upperneck 23.3419 10.1505 -8.37213
head 9.66439 4.70693 -3.1092
rclavicle 3.5393e-014 -9.93923e-017
rhumerus 5.03455 -13.2857 -47.7262
rradius 37.7855
rwrist 14.421
rhand -31.3218 35.8718
rfingers 7.12502
rthumb -4.59388 5.94164
lclavicle 3.5393e-014 -9.93923e-017
lhumerus -50.1307 11.641 -0.640222
lradius 28.5592
lwrist 44.3036
lhand -23.0729 -306.314
lfingers 7.12502
lthumb 3.37268 -276.361
rfemur 32.1283 -22.2799 9.49797
rtibia -3.81667e-014
rfoot -15.2858 -19.8972
rtoes -11.3182
lfemur -47.1289 -26.5103 1.38876
ltibia 47.293
lfoot -8.58308 -30.2596
ltoes 8.55246
215
root 9.93756 14.7511 0.823941 185.494 -162.201 -184.966
lowerback -0.128765 19.4062 12.1164
upperback -1.63672 25.9118 -1.87165
thorax 4.14871 13.061 -5.60982
lowerneck -9.36557 6.55235 8.51515
upperneck 23.785 10.0687 -8.81919
head 9.96258 4.63536 -3.31198
rclavicle 9.17547e-014 -7.57867e-015
rhumerus 6.60181 -11.4272 -50.4811
rradius 39.1095
rwrist 13.8345
rhand -30.7843 37.8633
rfingers 7.12502
rthumb -4.07488 7.92251
lclavicle 9.17547e-014 -7.57867e-015
lhumerus -53.7889 14.058 -3.54574
lradius 27.016
lwrist 41.6846
lhand -23.0445 -306.31
lfingers 7.12502
lthumb 3.4001 -276.357
rfemur 33.0162 -22.4007 9.88455
rtibia 4.77083e-014
rfoot -15.151 -19.5257
rtoes -11.3794
lfemur -47.7751 -26.9996 1.56279
ltibia 48.7104
lfoot -8.75449 -30.6182
ltoes 9.14727
216
root 9.93266 14.6983 0.889301 185.341 -163.338 -185.719
lowerback -0.122892 19.7533 12.6317
upperback -1.5474 26.3496 -1.35894
thorax 4.29022 13.2698 -5.2033
lowerneck -9.88883 6.29072 8.47171
upperneck 23.9606 9.75796 -9.06308
head 10.105 4.44959 -3.41926
rclavicle -1.11349e-013 -2.84759e-014
rhumerus 7.71717 -8.88724 -52.2248
rradius 40.4068
rwrist 12.8964
rhand -29.4597 39.7864
rfingers 7.12502
rthumb -2.79564 9.82499
lclavicle -1.11349e-013 -2.84759e-014
lhumerus -57.1224 15.6525 -5.98394
lradius 25.7334
lwrist 40.2812
lhand -23.7014 -306.15
lfingers 7.12502
lthumb 2.76574 -276.188
rfemur 33.8695 -22.4499 10.6143
rtibia 1.08139e-013
rfoot -15.0445 -19.5462
rtoes -11.8275
lfemur -48.2151 -27.4292 1.98659
ltibia 50.0174
lfoot -9.17068 -30.9733
ltoes 9.18312
217
root 9.92808 14.6505 0.95737 185.099 -164.178 -186.199
lowerback 0.0366689 20.075 13.0237
upperback -1.52709 26.7865 -1.07569
thorax 4.33513 13.4813 -5.02555
lowerneck -10.3132 5.88889 8.40427
upperneck 23.8894 9.18759 -9.16334
head 10.1028 4.15913 -3.50882
rclavicle 3.43734e-014 -3.67752e-015
rhumerus 8.34788 -7.183 -54.1094
rradius 41.2673
rwrist 13.3874
rhand -29.9907 41.5994
rfingers 7.12502
rthumb -3.30849 11.6454
lclavicle 3.43734e-014 -3.67752e-015
lhumerus -59.582 16.1639 -7.31882
lradius 25.0603
lwrist 40.3382
lhand -24.2066 -302.384
lfingers 7.12502
lthumb 2.27784 -272.416
rfemur 34.6251 -22.2594 11.1305
rtibia 2.22639e-014
rfoot -15.1338 -19.8156
rtoes -11.4766
lfemur -48.4298 -27.6437 2.0519
ltibia 51.1754
lfoot -8.98656 -31.5083
ltoes 11.4812
218
root 9.92326 14.6145 1.02837 184.988 -164.835 -186.499
lowerback 0.0431274 20.3411 13.2701
upperback -1.56402 27.1366 -0.95155
thorax 4.39796 13.651 -4.91542
lowerneck -10.6366 5.43557 8.21203
upperneck 23.6333 8.52939 -9.17092
head 9.99508 3.8292 -3.55652
rclavicle -2.14408e-014 1.15792e-014
rhumerus 8.59728 -5.76329 -55.9757
rradius 41.7283
rwrist 14.7854
rhand -33.7264 39.5646
rfingers 7.12502
rthumb -6.91547 9.69753
lclavicle -2.14408e-014 1.15792e-014
lhumerus -61.3616 16.4462 -8.26691
lradius 24.643
lwrist 40.956
lhand -26.1065 -299.561
lfingers 7.12502
lthumb 0.442864 -450.418
rfemur 35.1053 -21.976 11.633
rtibia -7.95139e-014
rfoot -15.4885 -20.3399
rtoes -10.2734
lfemur -48.6633 -27.653 1.96248
ltibia 52.1235
lfoot -8.21024 -32.1507
ltoes 15.247
219
root 9.92063 14.585 1.09281 184.997 -165.419 -186.59
lowerback 0.0573615 20.509 13.3815
upperback -1.72087 27.3706 -1.0335
thorax 4.35046 13.7615 -5.00059
lowerneck -10.8155 4.98472 8.08278
upperneck 23.2941 7.85173 -9.13293
head 9.83084 3.50377 -3.60204
rclavicle -2.46935e-014 -2.41523e-014
rhumerus 8.93572 -6.80033 -57.8234
rradius 41.0668
rwrist 16.2471
rhand -29.968 44.3257
rfingers 7.12502
rthumb -3.2866 14.3713
lclavicle -2.46935e-014 -2.41523e-014
lhumerus -61.911 16.2519 -7.83845
lradius 24.3815
lwrist 40.3434
lhand -26.3633 -299.574
lfingers 7.12502
lthumb 0.194875 -450.406
rfemur 35.2444 -21.7501 12.1767
rtibia -2.8625e-014
rfoot -15.5098 -21.4665
rtoes -10.6628
lfemur -48.9728 -27.5464 1.72034
ltibia 52.8363
lfoot -7.37671 -32.732
ltoes 18.4646
220
root 9.91902 14.5725 1.14949 185.035 -165.779 -186.524
lowerback 0.146948 20.5409 13.4849
upperback -1.82492 27.4362 -1.19501
thorax 4.32794 13.7958 -5.20849
lowerneck -10.838 4.61017 7.93988
upperneck 22.8223 7.3056 -9.17792
head 9.6083 3.23342 -3.65664
rclavicle -6.8928e-014 -3.93842e-015
rhumerus 8.86314 -6.64389 -58.9318
rradius 40.9449
rwrist 16.4548
rhand -30.1793 43.7769
rfingers 7.12502
rthumb -3.49058 13.8257
lclavicle -6.8928e-014 -3.93842e-015
lhumerus -61.6389 16.2374 -6.8529
lradius 24.3259
lwrist 38.9266
lhand -24.6601 -298.535
lfingers 7.12502
lthumb 1.83987 -451.437
rfemur 35.1127 -21.3887 12.7012
rtibia 4.45278e-014
rfoot -15.3674 -22.9989
rtoes -11.2727
lfemur -49.1169 -27.2607 1.31261
ltibia 53.2955
lfoot -6.88249 -33.2235
ltoes 20.3025
221
root 9.91657 14.5812 1.20142 185.092 -165.781 -186.363
lowerback 0.207085 20.4636 13.5145
upperback -1.77302 27.3424 -1.25822
thorax 4.38022 13.7567 -5.30421
lowerneck -10.8074 4.33105 7.59153
upperneck 22.3812 6.96566 -9.30062
head 9.4048 3.03513 -3.67694
rclavicle -3.0335e-014 -1.13059e-014
rhumerus 8.73477 -7.03892 -59.7147
rradius 40.5705
rwrist 17.2398
rhand -31.0852 42.549
rfingers 7.12502
rthumb -4.36544 12.614
lclavicle -3.0335e-014 -1.13059e-014
lhumerus -61.0882 16.4802 -5.57502
lradius 24.4841
lwrist 38.8271
lhand -24.7485 -296.858
lfingers 7.12502
lthumb 1.75449 -453.115
rfemur 34.808 -20.7149 13.1887
rtibia 6.36111e-015
rfoot -15.7609 -24.5654
rtoes -10.0666
lfemur -49.0077 -26.7837 0.815766
ltibia 53.5094
lfoot -6.68235 -33.5534
ltoes 21.0922
222
root 9.91647 14.597 1.24632 185.224 -165.422 -186.158
lowerback 0.287458 20.3154 13.4613
upperback -1.69416 27.1543 -1.25782
thorax 4.36624 13.6677 -5.34871
lowerneck -10.7467 4.11651 7.18667
upperneck 22.0327 6.76385 -9.52119
head 9.24536 2.88831 -3.70551
rclavicle 2.16955e-014 -9.64106e-015
rhumerus 8.439 -7.05862 -59.6952
rradius 40.3975
rwrist 17.2597
rhand -31.7278 41.6919
rfingers 7.12502
rthumb -4.9859 11.7706
lclavicle 2.16955e-014 -9.64106e-015
lhumerus -60.105 16.7779 -3.98581
lradius 24.7332
lwrist 38.621
lhand -24.9744 -293.26
lfingers 7.12502
lthumb 1.53626 -456.714
rfemur 34.3104 -19.7307 13.7145
rtibia -6.36111e-015
rfoot -16.7334 -26.1313
rtoes -7.45114
lfemur -48.8077 -26.1986 0.352616
ltibia 53.5228
lfoot -6.72155 -33.5391
ltoes 21.1877
223
root 9.92281 14.6196 1.28669 185.457 -164.636 -185.967
lowerback 0.318945 20.0582 13.4139
upperback -1.55576 26.8093 -1.19597
thorax 4.38422 13.5022 -5.34942
lowerneck -10.7174 3.9591 6.74796
upperneck 21.6874 6.6523 -9.77855
head 9.10368 2.77658 -3.72891
rclavicle 3.6213e-014 -2.5842e-015
rhumerus 8.50102 -6.95014 -58.8932
rradius 39.9055
rwrist 16.4044
rhand -30.9888 41.6211
rfingers 7.12502
rthumb -4.27231 11.6842
lclavicle 3.6213e-014 -2.5842e-015
lhumerus -59.0348 17.0899 -2.46933
lradius 24.8517
lwrist 37.6913
lhand -24.13 -302.504
lfingers 7.12502
lthumb 2.35176 -632.537
rfemur 33.551 -18.3708 14.3355
rtibia -3.18055e-015
rfoot -17.6685 -27.9853
rtoes -5.07142
lfemur -48.4843 -25.5087 -0.0499578
ltibia 53.3574
lfoot -7.32786 -33.1657
ltoes 20.1241
